<?xml version="1.0" encoding="utf-8" standalone="no"?>
<!DOCTYPE svg PUBLIC "-//W3C//DTD SVG 1.1//EN"
  "http://www.w3.org/Graphics/SVG/1.1/DTD/svg11.dtd">
<svg xmlns:xlink="http://www.w3.org/1999/xlink" width="567.579375pt" height="350.889687pt" viewBox="0 0 567.579375 350.889687" xmlns="http://www.w3.org/2000/svg" version="1.1">
 <metadata>
  <rdf:RDF xmlns:dc="http://purl.org/dc/elements/1.1/" xmlns:cc="http://creativecommons.org/ns#" xmlns:rdf="http://www.w3.org/1999/02/22-rdf-syntax-ns#">
   <cc:Work>
    <dc:type rdf:resource="http://purl.org/dc/dcmitype/StillImage"/>
    <dc:date>2026-01-28T17:49:01.519527</dc:date>
    <dc:format>image/svg+xml</dc:format>
    <dc:creator>
     <cc:Agent>
      <dc:title>Matplotlib v3.10.8, https://matplotlib.org/</dc:title>
     </cc:Agent>
    </dc:creator>
   </cc:Work>
  </rdf:RDF>
 </metadata>
 <defs>
  <style type="text/css">*{stroke-linejoin: round; stroke-linecap: butt}</style>
 </defs>
 <g id="figure_1">
  <g id="patch_1">
   <path d="M 0 350.889687 
L 567.579375 350.889687 
L 567.579375 0 
L 0 0 
z
" style="fill: #ffffff"/>
  </g>
  <g id="axes_1">
   <g id="patch_2">
    <path d="M 45.716875 311.397812 
L 554.016875 311.397812 
L 554.016875 23.837812 
L 45.716875 23.837812 
z
" style="fill: #ffffff"/>
   </g>
   <g id="matplotlib.axis_1">
    <g id="xtick_1">
     <g id="line2d_1">
      <path d="M 97.850208 311.397812 
L 97.850208 23.837812 
" clip-path="url(#pd7a6622ed2)" style="fill: none; stroke: #b0b0b0; stroke-opacity: 0.3; stroke-width: 0.8; stroke-linecap: square"/>
     </g>
     <g id="line2d_2">
      <defs>
       <path id="mc50491a1ca" d="M 0 0 
L 0 3.5 
" style="stroke: #000000; stroke-width: 0.8"/>
      </defs>
      <g>
       <use xlink:href="#mc50491a1ca" x="97.850208" y="311.397812" style="stroke: #000000; stroke-width: 0.8"/>
      </g>
     </g>
     <g id="text_1">
      <!-- 5 -->
      <g transform="translate(94.668958 325.99625) scale(0.1 -0.1)">
       <defs>
        <path id="DejaVuSans-35" d="M 691 4666 
L 3169 4666 
L 3169 4134 
L 1269 4134 
L 1269 2991 
Q 1406 3038 1543 3061 
Q 1681 3084 1819 3084 
Q 2600 3084 3056 2656 
Q 3513 2228 3513 1497 
Q 3513 744 3044 326 
Q 2575 -91 1722 -91 
Q 1428 -91 1123 -41 
Q 819 9 494 109 
L 494 744 
Q 775 591 1075 516 
Q 1375 441 1709 441 
Q 2250 441 2565 725 
Q 2881 1009 2881 1497 
Q 2881 1984 2565 2268 
Q 2250 2553 1709 2553 
Q 1456 2553 1204 2497 
Q 953 2441 691 2322 
L 691 4666 
z
" transform="scale(0.015625)"/>
       </defs>
       <use xlink:href="#DejaVuSans-35"/>
      </g>
     </g>
    </g>
    <g id="xtick_2">
     <g id="line2d_3">
      <path d="M 163.016875 311.397812 
L 163.016875 23.837812 
" clip-path="url(#pd7a6622ed2)" style="fill: none; stroke: #b0b0b0; stroke-opacity: 0.3; stroke-width: 0.8; stroke-linecap: square"/>
     </g>
     <g id="line2d_4">
      <g>
       <use xlink:href="#mc50491a1ca" x="163.016875" y="311.397812" style="stroke: #000000; stroke-width: 0.8"/>
      </g>
     </g>
     <g id="text_2">
      <!-- 10 -->
      <g transform="translate(156.654375 325.99625) scale(0.1 -0.1)">
       <defs>
        <path id="DejaVuSans-31" d="M 794 531 
L 1825 531 
L 1825 4091 
L 703 3866 
L 703 4441 
L 1819 4666 
L 2450 4666 
L 2450 531 
L 3481 531 
L 3481 0 
L 794 0 
L 794 531 
z
" transform="scale(0.015625)"/>
        <path id="DejaVuSans-30" d="M 2034 4250 
Q 1547 4250 1301 3770 
Q 1056 3291 1056 2328 
Q 1056 1369 1301 889 
Q 1547 409 2034 409 
Q 2525 409 2770 889 
Q 3016 1369 3016 2328 
Q 3016 3291 2770 3770 
Q 2525 4250 2034 4250 
z
M 2034 4750 
Q 2819 4750 3233 4129 
Q 3647 3509 3647 2328 
Q 3647 1150 3233 529 
Q 2819 -91 2034 -91 
Q 1250 -91 836 529 
Q 422 1150 422 2328 
Q 422 3509 836 4129 
Q 1250 4750 2034 4750 
z
" transform="scale(0.015625)"/>
       </defs>
       <use xlink:href="#DejaVuSans-31"/>
       <use xlink:href="#DejaVuSans-30" transform="translate(63.623047 0)"/>
      </g>
     </g>
    </g>
    <g id="xtick_3">
     <g id="line2d_5">
      <path d="M 228.183542 311.397812 
L 228.183542 23.837812 
" clip-path="url(#pd7a6622ed2)" style="fill: none; stroke: #b0b0b0; stroke-opacity: 0.3; stroke-width: 0.8; stroke-linecap: square"/>
     </g>
     <g id="line2d_6">
      <g>
       <use xlink:href="#mc50491a1ca" x="228.183542" y="311.397812" style="stroke: #000000; stroke-width: 0.8"/>
      </g>
     </g>
     <g id="text_3">
      <!-- 15 -->
      <g transform="translate(221.821042 325.99625) scale(0.1 -0.1)">
       <use xlink:href="#DejaVuSans-31"/>
       <use xlink:href="#DejaVuSans-35" transform="translate(63.623047 0)"/>
      </g>
     </g>
    </g>
    <g id="xtick_4">
     <g id="line2d_7">
      <path d="M 293.350208 311.397812 
L 293.350208 23.837812 
" clip-path="url(#pd7a6622ed2)" style="fill: none; stroke: #b0b0b0; stroke-opacity: 0.3; stroke-width: 0.8; stroke-linecap: square"/>
     </g>
     <g id="line2d_8">
      <g>
       <use xlink:href="#mc50491a1ca" x="293.350208" y="311.397812" style="stroke: #000000; stroke-width: 0.8"/>
      </g>
     </g>
     <g id="text_4">
      <!-- 20 -->
      <g transform="translate(286.987708 325.99625) scale(0.1 -0.1)">
       <defs>
        <path id="DejaVuSans-32" d="M 1228 531 
L 3431 531 
L 3431 0 
L 469 0 
L 469 531 
Q 828 903 1448 1529 
Q 2069 2156 2228 2338 
Q 2531 2678 2651 2914 
Q 2772 3150 2772 3378 
Q 2772 3750 2511 3984 
Q 2250 4219 1831 4219 
Q 1534 4219 1204 4116 
Q 875 4013 500 3803 
L 500 4441 
Q 881 4594 1212 4672 
Q 1544 4750 1819 4750 
Q 2544 4750 2975 4387 
Q 3406 4025 3406 3419 
Q 3406 3131 3298 2873 
Q 3191 2616 2906 2266 
Q 2828 2175 2409 1742 
Q 1991 1309 1228 531 
z
" transform="scale(0.015625)"/>
       </defs>
       <use xlink:href="#DejaVuSans-32"/>
       <use xlink:href="#DejaVuSans-30" transform="translate(63.623047 0)"/>
      </g>
     </g>
    </g>
    <g id="xtick_5">
     <g id="line2d_9">
      <path d="M 358.516875 311.397812 
L 358.516875 23.837812 
" clip-path="url(#pd7a6622ed2)" style="fill: none; stroke: #b0b0b0; stroke-opacity: 0.3; stroke-width: 0.8; stroke-linecap: square"/>
     </g>
     <g id="line2d_10">
      <g>
       <use xlink:href="#mc50491a1ca" x="358.516875" y="311.397812" style="stroke: #000000; stroke-width: 0.8"/>
      </g>
     </g>
     <g id="text_5">
      <!-- 25 -->
      <g transform="translate(352.154375 325.99625) scale(0.1 -0.1)">
       <use xlink:href="#DejaVuSans-32"/>
       <use xlink:href="#DejaVuSans-35" transform="translate(63.623047 0)"/>
      </g>
     </g>
    </g>
    <g id="xtick_6">
     <g id="line2d_11">
      <path d="M 423.683542 311.397812 
L 423.683542 23.837812 
" clip-path="url(#pd7a6622ed2)" style="fill: none; stroke: #b0b0b0; stroke-opacity: 0.3; stroke-width: 0.8; stroke-linecap: square"/>
     </g>
     <g id="line2d_12">
      <g>
       <use xlink:href="#mc50491a1ca" x="423.683542" y="311.397812" style="stroke: #000000; stroke-width: 0.8"/>
      </g>
     </g>
     <g id="text_6">
      <!-- 30 -->
      <g transform="translate(417.321042 325.99625) scale(0.1 -0.1)">
       <defs>
        <path id="DejaVuSans-33" d="M 2597 2516 
Q 3050 2419 3304 2112 
Q 3559 1806 3559 1356 
Q 3559 666 3084 287 
Q 2609 -91 1734 -91 
Q 1441 -91 1130 -33 
Q 819 25 488 141 
L 488 750 
Q 750 597 1062 519 
Q 1375 441 1716 441 
Q 2309 441 2620 675 
Q 2931 909 2931 1356 
Q 2931 1769 2642 2001 
Q 2353 2234 1838 2234 
L 1294 2234 
L 1294 2753 
L 1863 2753 
Q 2328 2753 2575 2939 
Q 2822 3125 2822 3475 
Q 2822 3834 2567 4026 
Q 2313 4219 1838 4219 
Q 1578 4219 1281 4162 
Q 984 4106 628 3988 
L 628 4550 
Q 988 4650 1302 4700 
Q 1616 4750 1894 4750 
Q 2613 4750 3031 4423 
Q 3450 4097 3450 3541 
Q 3450 3153 3228 2886 
Q 3006 2619 2597 2516 
z
" transform="scale(0.015625)"/>
       </defs>
       <use xlink:href="#DejaVuSans-33"/>
       <use xlink:href="#DejaVuSans-30" transform="translate(63.623047 0)"/>
      </g>
     </g>
    </g>
    <g id="xtick_7">
     <g id="line2d_13">
      <path d="M 488.850208 311.397812 
L 488.850208 23.837812 
" clip-path="url(#pd7a6622ed2)" style="fill: none; stroke: #b0b0b0; stroke-opacity: 0.3; stroke-width: 0.8; stroke-linecap: square"/>
     </g>
     <g id="line2d_14">
      <g>
       <use xlink:href="#mc50491a1ca" x="488.850208" y="311.397812" style="stroke: #000000; stroke-width: 0.8"/>
      </g>
     </g>
     <g id="text_7">
      <!-- 35 -->
      <g transform="translate(482.487708 325.99625) scale(0.1 -0.1)">
       <use xlink:href="#DejaVuSans-33"/>
       <use xlink:href="#DejaVuSans-35" transform="translate(63.623047 0)"/>
      </g>
     </g>
    </g>
    <g id="xtick_8">
     <g id="line2d_15">
      <path d="M 554.016875 311.397812 
L 554.016875 23.837812 
" clip-path="url(#pd7a6622ed2)" style="fill: none; stroke: #b0b0b0; stroke-opacity: 0.3; stroke-width: 0.8; stroke-linecap: square"/>
     </g>
     <g id="line2d_16">
      <g>
       <use xlink:href="#mc50491a1ca" x="554.016875" y="311.397812" style="stroke: #000000; stroke-width: 0.8"/>
      </g>
     </g>
     <g id="text_8">
      <!-- 40 -->
      <g transform="translate(547.654375 325.99625) scale(0.1 -0.1)">
       <defs>
        <path id="DejaVuSans-34" d="M 2419 4116 
L 825 1625 
L 2419 1625 
L 2419 4116 
z
M 2253 4666 
L 3047 4666 
L 3047 1625 
L 3713 1625 
L 3713 1100 
L 3047 1100 
L 3047 0 
L 2419 0 
L 2419 1100 
L 313 1100 
L 313 1709 
L 2253 4666 
z
" transform="scale(0.015625)"/>
       </defs>
       <use xlink:href="#DejaVuSans-34"/>
       <use xlink:href="#DejaVuSans-30" transform="translate(63.623047 0)"/>
      </g>
     </g>
    </g>
    <g id="text_9">
     <!-- Iteration -->
     <g transform="translate(274.416563 341.194062) scale(0.12 -0.12)">
      <defs>
       <path id="DejaVuSans-49" d="M 628 4666 
L 1259 4666 
L 1259 0 
L 628 0 
L 628 4666 
z
" transform="scale(0.015625)"/>
       <path id="DejaVuSans-74" d="M 1172 4494 
L 1172 3500 
L 2356 3500 
L 2356 3053 
L 1172 3053 
L 1172 1153 
Q 1172 725 1289 603 
Q 1406 481 1766 481 
L 2356 481 
L 2356 0 
L 1766 0 
Q 1100 0 847 248 
Q 594 497 594 1153 
L 594 3053 
L 172 3053 
L 172 3500 
L 594 3500 
L 594 4494 
L 1172 4494 
z
" transform="scale(0.015625)"/>
       <path id="DejaVuSans-65" d="M 3597 1894 
L 3597 1613 
L 953 1613 
Q 991 1019 1311 708 
Q 1631 397 2203 397 
Q 2534 397 2845 478 
Q 3156 559 3463 722 
L 3463 178 
Q 3153 47 2828 -22 
Q 2503 -91 2169 -91 
Q 1331 -91 842 396 
Q 353 884 353 1716 
Q 353 2575 817 3079 
Q 1281 3584 2069 3584 
Q 2775 3584 3186 3129 
Q 3597 2675 3597 1894 
z
M 3022 2063 
Q 3016 2534 2758 2815 
Q 2500 3097 2075 3097 
Q 1594 3097 1305 2825 
Q 1016 2553 972 2059 
L 3022 2063 
z
" transform="scale(0.015625)"/>
       <path id="DejaVuSans-72" d="M 2631 2963 
Q 2534 3019 2420 3045 
Q 2306 3072 2169 3072 
Q 1681 3072 1420 2755 
Q 1159 2438 1159 1844 
L 1159 0 
L 581 0 
L 581 3500 
L 1159 3500 
L 1159 2956 
Q 1341 3275 1631 3429 
Q 1922 3584 2338 3584 
Q 2397 3584 2469 3576 
Q 2541 3569 2628 3553 
L 2631 2963 
z
" transform="scale(0.015625)"/>
       <path id="DejaVuSans-61" d="M 2194 1759 
Q 1497 1759 1228 1600 
Q 959 1441 959 1056 
Q 959 750 1161 570 
Q 1363 391 1709 391 
Q 2188 391 2477 730 
Q 2766 1069 2766 1631 
L 2766 1759 
L 2194 1759 
z
M 3341 1997 
L 3341 0 
L 2766 0 
L 2766 531 
Q 2569 213 2275 61 
Q 1981 -91 1556 -91 
Q 1019 -91 701 211 
Q 384 513 384 1019 
Q 384 1609 779 1909 
Q 1175 2209 1959 2209 
L 2766 2209 
L 2766 2266 
Q 2766 2663 2505 2880 
Q 2244 3097 1772 3097 
Q 1472 3097 1187 3025 
Q 903 2953 641 2809 
L 641 3341 
Q 956 3463 1253 3523 
Q 1550 3584 1831 3584 
Q 2591 3584 2966 3190 
Q 3341 2797 3341 1997 
z
" transform="scale(0.015625)"/>
       <path id="DejaVuSans-69" d="M 603 3500 
L 1178 3500 
L 1178 0 
L 603 0 
L 603 3500 
z
M 603 4863 
L 1178 4863 
L 1178 4134 
L 603 4134 
L 603 4863 
z
" transform="scale(0.015625)"/>
       <path id="DejaVuSans-6f" d="M 1959 3097 
Q 1497 3097 1228 2736 
Q 959 2375 959 1747 
Q 959 1119 1226 758 
Q 1494 397 1959 397 
Q 2419 397 2687 759 
Q 2956 1122 2956 1747 
Q 2956 2369 2687 2733 
Q 2419 3097 1959 3097 
z
M 1959 3584 
Q 2709 3584 3137 3096 
Q 3566 2609 3566 1747 
Q 3566 888 3137 398 
Q 2709 -91 1959 -91 
Q 1206 -91 779 398 
Q 353 888 353 1747 
Q 353 2609 779 3096 
Q 1206 3584 1959 3584 
z
" transform="scale(0.015625)"/>
       <path id="DejaVuSans-6e" d="M 3513 2113 
L 3513 0 
L 2938 0 
L 2938 2094 
Q 2938 2591 2744 2837 
Q 2550 3084 2163 3084 
Q 1697 3084 1428 2787 
Q 1159 2491 1159 1978 
L 1159 0 
L 581 0 
L 581 3500 
L 1159 3500 
L 1159 2956 
Q 1366 3272 1645 3428 
Q 1925 3584 2291 3584 
Q 2894 3584 3203 3211 
Q 3513 2838 3513 2113 
z
" transform="scale(0.015625)"/>
      </defs>
      <use xlink:href="#DejaVuSans-49"/>
      <use xlink:href="#DejaVuSans-74" transform="translate(29.492188 0)"/>
      <use xlink:href="#DejaVuSans-65" transform="translate(68.701172 0)"/>
      <use xlink:href="#DejaVuSans-72" transform="translate(130.224609 0)"/>
      <use xlink:href="#DejaVuSans-61" transform="translate(171.337891 0)"/>
      <use xlink:href="#DejaVuSans-74" transform="translate(232.617188 0)"/>
      <use xlink:href="#DejaVuSans-69" transform="translate(271.826172 0)"/>
      <use xlink:href="#DejaVuSans-6f" transform="translate(299.609375 0)"/>
      <use xlink:href="#DejaVuSans-6e" transform="translate(360.791016 0)"/>
     </g>
    </g>
   </g>
   <g id="matplotlib.axis_2">
    <g id="ytick_1">
     <g id="line2d_17">
      <path d="M 45.716875 286.392595 
L 554.016875 286.392595 
" clip-path="url(#pd7a6622ed2)" style="fill: none; stroke: #b0b0b0; stroke-opacity: 0.3; stroke-width: 0.8; stroke-linecap: square"/>
     </g>
     <g id="line2d_18">
      <defs>
       <path id="m656fb055a6" d="M 0 0 
L -3.5 0 
" style="stroke: #000000; stroke-width: 0.8"/>
      </defs>
      <g>
       <use xlink:href="#m656fb055a6" x="45.716875" y="286.392595" style="stroke: #000000; stroke-width: 0.8"/>
      </g>
     </g>
     <g id="text_10">
      <!-- 0.0 -->
      <g transform="translate(22.81375 290.191814) scale(0.1 -0.1)">
       <defs>
        <path id="DejaVuSans-2e" d="M 684 794 
L 1344 794 
L 1344 0 
L 684 0 
L 684 794 
z
" transform="scale(0.015625)"/>
       </defs>
       <use xlink:href="#DejaVuSans-30"/>
       <use xlink:href="#DejaVuSans-2e" transform="translate(63.623047 0)"/>
       <use xlink:href="#DejaVuSans-30" transform="translate(95.410156 0)"/>
      </g>
     </g>
    </g>
    <g id="ytick_2">
     <g id="line2d_19">
      <path d="M 45.716875 236.38216 
L 554.016875 236.38216 
" clip-path="url(#pd7a6622ed2)" style="fill: none; stroke: #b0b0b0; stroke-opacity: 0.3; stroke-width: 0.8; stroke-linecap: square"/>
     </g>
     <g id="line2d_20">
      <g>
       <use xlink:href="#m656fb055a6" x="45.716875" y="236.38216" style="stroke: #000000; stroke-width: 0.8"/>
      </g>
     </g>
     <g id="text_11">
      <!-- 0.2 -->
      <g transform="translate(22.81375 240.181379) scale(0.1 -0.1)">
       <use xlink:href="#DejaVuSans-30"/>
       <use xlink:href="#DejaVuSans-2e" transform="translate(63.623047 0)"/>
       <use xlink:href="#DejaVuSans-32" transform="translate(95.410156 0)"/>
      </g>
     </g>
    </g>
    <g id="ytick_3">
     <g id="line2d_21">
      <path d="M 45.716875 186.371726 
L 554.016875 186.371726 
" clip-path="url(#pd7a6622ed2)" style="fill: none; stroke: #b0b0b0; stroke-opacity: 0.3; stroke-width: 0.8; stroke-linecap: square"/>
     </g>
     <g id="line2d_22">
      <g>
       <use xlink:href="#m656fb055a6" x="45.716875" y="186.371726" style="stroke: #000000; stroke-width: 0.8"/>
      </g>
     </g>
     <g id="text_12">
      <!-- 0.4 -->
      <g transform="translate(22.81375 190.170944) scale(0.1 -0.1)">
       <use xlink:href="#DejaVuSans-30"/>
       <use xlink:href="#DejaVuSans-2e" transform="translate(63.623047 0)"/>
       <use xlink:href="#DejaVuSans-34" transform="translate(95.410156 0)"/>
      </g>
     </g>
    </g>
    <g id="ytick_4">
     <g id="line2d_23">
      <path d="M 45.716875 136.361291 
L 554.016875 136.361291 
" clip-path="url(#pd7a6622ed2)" style="fill: none; stroke: #b0b0b0; stroke-opacity: 0.3; stroke-width: 0.8; stroke-linecap: square"/>
     </g>
     <g id="line2d_24">
      <g>
       <use xlink:href="#m656fb055a6" x="45.716875" y="136.361291" style="stroke: #000000; stroke-width: 0.8"/>
      </g>
     </g>
     <g id="text_13">
      <!-- 0.6 -->
      <g transform="translate(22.81375 140.16051) scale(0.1 -0.1)">
       <defs>
        <path id="DejaVuSans-36" d="M 2113 2584 
Q 1688 2584 1439 2293 
Q 1191 2003 1191 1497 
Q 1191 994 1439 701 
Q 1688 409 2113 409 
Q 2538 409 2786 701 
Q 3034 994 3034 1497 
Q 3034 2003 2786 2293 
Q 2538 2584 2113 2584 
z
M 3366 4563 
L 3366 3988 
Q 3128 4100 2886 4159 
Q 2644 4219 2406 4219 
Q 1781 4219 1451 3797 
Q 1122 3375 1075 2522 
Q 1259 2794 1537 2939 
Q 1816 3084 2150 3084 
Q 2853 3084 3261 2657 
Q 3669 2231 3669 1497 
Q 3669 778 3244 343 
Q 2819 -91 2113 -91 
Q 1303 -91 875 529 
Q 447 1150 447 2328 
Q 447 3434 972 4092 
Q 1497 4750 2381 4750 
Q 2619 4750 2861 4703 
Q 3103 4656 3366 4563 
z
" transform="scale(0.015625)"/>
       </defs>
       <use xlink:href="#DejaVuSans-30"/>
       <use xlink:href="#DejaVuSans-2e" transform="translate(63.623047 0)"/>
       <use xlink:href="#DejaVuSans-36" transform="translate(95.410156 0)"/>
      </g>
     </g>
    </g>
    <g id="ytick_5">
     <g id="line2d_25">
      <path d="M 45.716875 86.350856 
L 554.016875 86.350856 
" clip-path="url(#pd7a6622ed2)" style="fill: none; stroke: #b0b0b0; stroke-opacity: 0.3; stroke-width: 0.8; stroke-linecap: square"/>
     </g>
     <g id="line2d_26">
      <g>
       <use xlink:href="#m656fb055a6" x="45.716875" y="86.350856" style="stroke: #000000; stroke-width: 0.8"/>
      </g>
     </g>
     <g id="text_14">
      <!-- 0.8 -->
      <g transform="translate(22.81375 90.150075) scale(0.1 -0.1)">
       <defs>
        <path id="DejaVuSans-38" d="M 2034 2216 
Q 1584 2216 1326 1975 
Q 1069 1734 1069 1313 
Q 1069 891 1326 650 
Q 1584 409 2034 409 
Q 2484 409 2743 651 
Q 3003 894 3003 1313 
Q 3003 1734 2745 1975 
Q 2488 2216 2034 2216 
z
M 1403 2484 
Q 997 2584 770 2862 
Q 544 3141 544 3541 
Q 544 4100 942 4425 
Q 1341 4750 2034 4750 
Q 2731 4750 3128 4425 
Q 3525 4100 3525 3541 
Q 3525 3141 3298 2862 
Q 3072 2584 2669 2484 
Q 3125 2378 3379 2068 
Q 3634 1759 3634 1313 
Q 3634 634 3220 271 
Q 2806 -91 2034 -91 
Q 1263 -91 848 271 
Q 434 634 434 1313 
Q 434 1759 690 2068 
Q 947 2378 1403 2484 
z
M 1172 3481 
Q 1172 3119 1398 2916 
Q 1625 2713 2034 2713 
Q 2441 2713 2670 2916 
Q 2900 3119 2900 3481 
Q 2900 3844 2670 4047 
Q 2441 4250 2034 4250 
Q 1625 4250 1398 4047 
Q 1172 3844 1172 3481 
z
" transform="scale(0.015625)"/>
       </defs>
       <use xlink:href="#DejaVuSans-30"/>
       <use xlink:href="#DejaVuSans-2e" transform="translate(63.623047 0)"/>
       <use xlink:href="#DejaVuSans-38" transform="translate(95.410156 0)"/>
      </g>
     </g>
    </g>
    <g id="ytick_6">
     <g id="line2d_27">
      <path d="M 45.716875 36.340421 
L 554.016875 36.340421 
" clip-path="url(#pd7a6622ed2)" style="fill: none; stroke: #b0b0b0; stroke-opacity: 0.3; stroke-width: 0.8; stroke-linecap: square"/>
     </g>
     <g id="line2d_28">
      <g>
       <use xlink:href="#m656fb055a6" x="45.716875" y="36.340421" style="stroke: #000000; stroke-width: 0.8"/>
      </g>
     </g>
     <g id="text_15">
      <!-- 1.0 -->
      <g transform="translate(22.81375 40.13964) scale(0.1 -0.1)">
       <use xlink:href="#DejaVuSans-31"/>
       <use xlink:href="#DejaVuSans-2e" transform="translate(63.623047 0)"/>
       <use xlink:href="#DejaVuSans-30" transform="translate(95.410156 0)"/>
      </g>
     </g>
    </g>
    <g id="text_16">
     <!-- Kendall's τ -->
     <g transform="translate(16.318125 199.860312) rotate(-90) scale(0.12 -0.12)">
      <defs>
       <path id="DejaVuSans-4b" d="M 628 4666 
L 1259 4666 
L 1259 2694 
L 3353 4666 
L 4166 4666 
L 1850 2491 
L 4331 0 
L 3500 0 
L 1259 2247 
L 1259 0 
L 628 0 
L 628 4666 
z
" transform="scale(0.015625)"/>
       <path id="DejaVuSans-64" d="M 2906 2969 
L 2906 4863 
L 3481 4863 
L 3481 0 
L 2906 0 
L 2906 525 
Q 2725 213 2448 61 
Q 2172 -91 1784 -91 
Q 1150 -91 751 415 
Q 353 922 353 1747 
Q 353 2572 751 3078 
Q 1150 3584 1784 3584 
Q 2172 3584 2448 3432 
Q 2725 3281 2906 2969 
z
M 947 1747 
Q 947 1113 1208 752 
Q 1469 391 1925 391 
Q 2381 391 2643 752 
Q 2906 1113 2906 1747 
Q 2906 2381 2643 2742 
Q 2381 3103 1925 3103 
Q 1469 3103 1208 2742 
Q 947 2381 947 1747 
z
" transform="scale(0.015625)"/>
       <path id="DejaVuSans-6c" d="M 603 4863 
L 1178 4863 
L 1178 0 
L 603 0 
L 603 4863 
z
" transform="scale(0.015625)"/>
       <path id="DejaVuSans-27" d="M 1147 4666 
L 1147 2931 
L 616 2931 
L 616 4666 
L 1147 4666 
z
" transform="scale(0.015625)"/>
       <path id="DejaVuSans-73" d="M 2834 3397 
L 2834 2853 
Q 2591 2978 2328 3040 
Q 2066 3103 1784 3103 
Q 1356 3103 1142 2972 
Q 928 2841 928 2578 
Q 928 2378 1081 2264 
Q 1234 2150 1697 2047 
L 1894 2003 
Q 2506 1872 2764 1633 
Q 3022 1394 3022 966 
Q 3022 478 2636 193 
Q 2250 -91 1575 -91 
Q 1294 -91 989 -36 
Q 684 19 347 128 
L 347 722 
Q 666 556 975 473 
Q 1284 391 1588 391 
Q 1994 391 2212 530 
Q 2431 669 2431 922 
Q 2431 1156 2273 1281 
Q 2116 1406 1581 1522 
L 1381 1569 
Q 847 1681 609 1914 
Q 372 2147 372 2553 
Q 372 3047 722 3315 
Q 1072 3584 1716 3584 
Q 2034 3584 2315 3537 
Q 2597 3491 2834 3397 
z
" transform="scale(0.015625)"/>
       <path id="DejaVuSans-20" transform="scale(0.015625)"/>
       <path id="DejaVuSans-3c4" d="M 2319 638 
Q 2431 488 2769 488 
L 3047 488 
L 3047 0 
L 2700 0 
Q 2138 0 1881 300 
Q 1625 606 1625 1269 
L 1625 2925 
L 313 2925 
L 313 3500 
L 3541 3500 
L 3541 2925 
L 2213 2925 
L 2213 1234 
Q 2213 781 2319 638 
z
" transform="scale(0.015625)"/>
      </defs>
      <use xlink:href="#DejaVuSans-4b"/>
      <use xlink:href="#DejaVuSans-65" transform="translate(60.576172 0)"/>
      <use xlink:href="#DejaVuSans-6e" transform="translate(122.099609 0)"/>
      <use xlink:href="#DejaVuSans-64" transform="translate(185.478516 0)"/>
      <use xlink:href="#DejaVuSans-61" transform="translate(248.955078 0)"/>
      <use xlink:href="#DejaVuSans-6c" transform="translate(310.234375 0)"/>
      <use xlink:href="#DejaVuSans-6c" transform="translate(338.017578 0)"/>
      <use xlink:href="#DejaVuSans-27" transform="translate(365.800781 0)"/>
      <use xlink:href="#DejaVuSans-73" transform="translate(393.291016 0)"/>
      <use xlink:href="#DejaVuSans-20" transform="translate(445.390625 0)"/>
      <use xlink:href="#DejaVuSans-3c4" transform="translate(477.177734 0)"/>
     </g>
    </g>
   </g>
   <g id="line2d_29">
    <path d="M 45.716875 96.983669 
L 58.750208 83.228735 
L 71.783542 79.867423 
L 84.816875 79.867423 
L 97.850208 79.867423 
L 110.883542 79.867423 
L 123.916875 79.867423 
L 136.950208 79.867423 
L 149.983542 79.867423 
L 163.016875 79.867423 
L 176.050208 79.867423 
L 189.083542 79.867423 
L 202.116875 79.867423 
L 215.150208 79.867423 
L 228.183542 79.867423 
L 241.216875 79.867423 
L 254.250208 79.867423 
L 267.283542 79.867423 
L 280.316875 79.867423 
L 293.350208 79.867423 
L 306.383542 79.867423 
L 319.416875 79.867423 
L 332.450208 79.867423 
L 345.483542 79.867423 
L 358.516875 79.867423 
L 371.550208 79.867423 
L 384.583542 79.867423 
L 397.616875 79.867423 
L 410.650208 79.867423 
L 423.683542 79.867423 
L 436.716875 79.867423 
L 449.750208 79.867423 
L 462.783542 79.867423 
L 475.816875 79.867423 
L 488.850208 79.867423 
L 501.883542 79.867423 
L 514.916875 79.867423 
L 527.950208 79.867423 
L 540.983542 79.867423 
L 554.016875 79.867423 
" clip-path="url(#pd7a6622ed2)" style="fill: none; stroke: #0000ff; stroke-width: 2; stroke-linecap: square"/>
    <defs>
     <path id="m52320fd889" d="M 0 2 
C 0.530406 2 1.03916 1.789267 1.414214 1.414214 
C 1.789267 1.03916 2 0.530406 2 0 
C 2 -0.530406 1.789267 -1.03916 1.414214 -1.414214 
C 1.03916 -1.789267 0.530406 -2 0 -2 
C -0.530406 -2 -1.03916 -1.789267 -1.414214 -1.414214 
C -1.789267 -1.03916 -2 -0.530406 -2 0 
C -2 0.530406 -1.789267 1.03916 -1.414214 1.414214 
C -1.03916 1.789267 -0.530406 2 0 2 
z
" style="stroke: #0000ff"/>
    </defs>
    <g clip-path="url(#pd7a6622ed2)">
     <use xlink:href="#m52320fd889" x="45.716875" y="96.983669" style="fill: #0000ff; stroke: #0000ff"/>
     <use xlink:href="#m52320fd889" x="58.750208" y="83.228735" style="fill: #0000ff; stroke: #0000ff"/>
     <use xlink:href="#m52320fd889" x="71.783542" y="79.867423" style="fill: #0000ff; stroke: #0000ff"/>
     <use xlink:href="#m52320fd889" x="84.816875" y="79.867423" style="fill: #0000ff; stroke: #0000ff"/>
     <use xlink:href="#m52320fd889" x="97.850208" y="79.867423" style="fill: #0000ff; stroke: #0000ff"/>
     <use xlink:href="#m52320fd889" x="110.883542" y="79.867423" style="fill: #0000ff; stroke: #0000ff"/>
     <use xlink:href="#m52320fd889" x="123.916875" y="79.867423" style="fill: #0000ff; stroke: #0000ff"/>
     <use xlink:href="#m52320fd889" x="136.950208" y="79.867423" style="fill: #0000ff; stroke: #0000ff"/>
     <use xlink:href="#m52320fd889" x="149.983542" y="79.867423" style="fill: #0000ff; stroke: #0000ff"/>
     <use xlink:href="#m52320fd889" x="163.016875" y="79.867423" style="fill: #0000ff; stroke: #0000ff"/>
     <use xlink:href="#m52320fd889" x="176.050208" y="79.867423" style="fill: #0000ff; stroke: #0000ff"/>
     <use xlink:href="#m52320fd889" x="189.083542" y="79.867423" style="fill: #0000ff; stroke: #0000ff"/>
     <use xlink:href="#m52320fd889" x="202.116875" y="79.867423" style="fill: #0000ff; stroke: #0000ff"/>
     <use xlink:href="#m52320fd889" x="215.150208" y="79.867423" style="fill: #0000ff; stroke: #0000ff"/>
     <use xlink:href="#m52320fd889" x="228.183542" y="79.867423" style="fill: #0000ff; stroke: #0000ff"/>
     <use xlink:href="#m52320fd889" x="241.216875" y="79.867423" style="fill: #0000ff; stroke: #0000ff"/>
     <use xlink:href="#m52320fd889" x="254.250208" y="79.867423" style="fill: #0000ff; stroke: #0000ff"/>
     <use xlink:href="#m52320fd889" x="267.283542" y="79.867423" style="fill: #0000ff; stroke: #0000ff"/>
     <use xlink:href="#m52320fd889" x="280.316875" y="79.867423" style="fill: #0000ff; stroke: #0000ff"/>
     <use xlink:href="#m52320fd889" x="293.350208" y="79.867423" style="fill: #0000ff; stroke: #0000ff"/>
     <use xlink:href="#m52320fd889" x="306.383542" y="79.867423" style="fill: #0000ff; stroke: #0000ff"/>
     <use xlink:href="#m52320fd889" x="319.416875" y="79.867423" style="fill: #0000ff; stroke: #0000ff"/>
     <use xlink:href="#m52320fd889" x="332.450208" y="79.867423" style="fill: #0000ff; stroke: #0000ff"/>
     <use xlink:href="#m52320fd889" x="345.483542" y="79.867423" style="fill: #0000ff; stroke: #0000ff"/>
     <use xlink:href="#m52320fd889" x="358.516875" y="79.867423" style="fill: #0000ff; stroke: #0000ff"/>
     <use xlink:href="#m52320fd889" x="371.550208" y="79.867423" style="fill: #0000ff; stroke: #0000ff"/>
     <use xlink:href="#m52320fd889" x="384.583542" y="79.867423" style="fill: #0000ff; stroke: #0000ff"/>
     <use xlink:href="#m52320fd889" x="397.616875" y="79.867423" style="fill: #0000ff; stroke: #0000ff"/>
     <use xlink:href="#m52320fd889" x="410.650208" y="79.867423" style="fill: #0000ff; stroke: #0000ff"/>
     <use xlink:href="#m52320fd889" x="423.683542" y="79.867423" style="fill: #0000ff; stroke: #0000ff"/>
     <use xlink:href="#m52320fd889" x="436.716875" y="79.867423" style="fill: #0000ff; stroke: #0000ff"/>
     <use xlink:href="#m52320fd889" x="449.750208" y="79.867423" style="fill: #0000ff; stroke: #0000ff"/>
     <use xlink:href="#m52320fd889" x="462.783542" y="79.867423" style="fill: #0000ff; stroke: #0000ff"/>
     <use xlink:href="#m52320fd889" x="475.816875" y="79.867423" style="fill: #0000ff; stroke: #0000ff"/>
     <use xlink:href="#m52320fd889" x="488.850208" y="79.867423" style="fill: #0000ff; stroke: #0000ff"/>
     <use xlink:href="#m52320fd889" x="501.883542" y="79.867423" style="fill: #0000ff; stroke: #0000ff"/>
     <use xlink:href="#m52320fd889" x="514.916875" y="79.867423" style="fill: #0000ff; stroke: #0000ff"/>
     <use xlink:href="#m52320fd889" x="527.950208" y="79.867423" style="fill: #0000ff; stroke: #0000ff"/>
     <use xlink:href="#m52320fd889" x="540.983542" y="79.867423" style="fill: #0000ff; stroke: #0000ff"/>
     <use xlink:href="#m52320fd889" x="554.016875" y="79.867423" style="fill: #0000ff; stroke: #0000ff"/>
    </g>
   </g>
   <g id="line2d_30">
    <path d="M 45.716875 48.274729 
L 58.750208 43.160026 
L 71.783542 51.116231 
L 84.816875 52.252832 
L 97.850208 43.728326 
L 110.883542 46.569828 
L 123.916875 50.547931 
L 136.950208 48.274729 
L 149.983542 47.138129 
L 163.016875 50.547931 
L 176.050208 46.569828 
L 189.083542 51.116231 
L 202.116875 43.728326 
L 215.150208 48.84303 
L 228.183542 47.138129 
L 241.216875 51.116231 
L 254.250208 44.296627 
L 267.283542 46.569828 
L 280.316875 47.706429 
L 293.350208 50.547931 
L 306.383542 47.138129 
L 319.416875 45.433228 
L 332.450208 46.001528 
L 345.483542 48.84303 
L 358.516875 47.138129 
L 371.550208 47.706429 
L 384.583542 46.001528 
L 397.616875 47.706429 
L 410.650208 47.138129 
L 423.683542 45.433228 
L 436.716875 48.84303 
L 449.750208 47.706429 
L 462.783542 52.252832 
L 475.816875 48.84303 
L 488.850208 47.706429 
L 501.883542 47.706429 
L 514.916875 48.274729 
L 527.950208 49.41133 
L 540.983542 43.728326 
L 554.016875 46.569828 
" clip-path="url(#pd7a6622ed2)" style="fill: none; stroke-dasharray: 7.4,3.2; stroke-dashoffset: 0; stroke: #ff0000; stroke-width: 2"/>
    <defs>
     <path id="m8fc0d2a38e" d="M -2 2 
L 2 2 
L 2 -2 
L -2 -2 
z
" style="stroke: #ff0000; stroke-linejoin: miter"/>
    </defs>
    <g clip-path="url(#pd7a6622ed2)">
     <use xlink:href="#m8fc0d2a38e" x="45.716875" y="48.274729" style="fill: #ff0000; stroke: #ff0000; stroke-linejoin: miter"/>
     <use xlink:href="#m8fc0d2a38e" x="58.750208" y="43.160026" style="fill: #ff0000; stroke: #ff0000; stroke-linejoin: miter"/>
     <use xlink:href="#m8fc0d2a38e" x="71.783542" y="51.116231" style="fill: #ff0000; stroke: #ff0000; stroke-linejoin: miter"/>
     <use xlink:href="#m8fc0d2a38e" x="84.816875" y="52.252832" style="fill: #ff0000; stroke: #ff0000; stroke-linejoin: miter"/>
     <use xlink:href="#m8fc0d2a38e" x="97.850208" y="43.728326" style="fill: #ff0000; stroke: #ff0000; stroke-linejoin: miter"/>
     <use xlink:href="#m8fc0d2a38e" x="110.883542" y="46.569828" style="fill: #ff0000; stroke: #ff0000; stroke-linejoin: miter"/>
     <use xlink:href="#m8fc0d2a38e" x="123.916875" y="50.547931" style="fill: #ff0000; stroke: #ff0000; stroke-linejoin: miter"/>
     <use xlink:href="#m8fc0d2a38e" x="136.950208" y="48.274729" style="fill: #ff0000; stroke: #ff0000; stroke-linejoin: miter"/>
     <use xlink:href="#m8fc0d2a38e" x="149.983542" y="47.138129" style="fill: #ff0000; stroke: #ff0000; stroke-linejoin: miter"/>
     <use xlink:href="#m8fc0d2a38e" x="163.016875" y="50.547931" style="fill: #ff0000; stroke: #ff0000; stroke-linejoin: miter"/>
     <use xlink:href="#m8fc0d2a38e" x="176.050208" y="46.569828" style="fill: #ff0000; stroke: #ff0000; stroke-linejoin: miter"/>
     <use xlink:href="#m8fc0d2a38e" x="189.083542" y="51.116231" style="fill: #ff0000; stroke: #ff0000; stroke-linejoin: miter"/>
     <use xlink:href="#m8fc0d2a38e" x="202.116875" y="43.728326" style="fill: #ff0000; stroke: #ff0000; stroke-linejoin: miter"/>
     <use xlink:href="#m8fc0d2a38e" x="215.150208" y="48.84303" style="fill: #ff0000; stroke: #ff0000; stroke-linejoin: miter"/>
     <use xlink:href="#m8fc0d2a38e" x="228.183542" y="47.138129" style="fill: #ff0000; stroke: #ff0000; stroke-linejoin: miter"/>
     <use xlink:href="#m8fc0d2a38e" x="241.216875" y="51.116231" style="fill: #ff0000; stroke: #ff0000; stroke-linejoin: miter"/>
     <use xlink:href="#m8fc0d2a38e" x="254.250208" y="44.296627" style="fill: #ff0000; stroke: #ff0000; stroke-linejoin: miter"/>
     <use xlink:href="#m8fc0d2a38e" x="267.283542" y="46.569828" style="fill: #ff0000; stroke: #ff0000; stroke-linejoin: miter"/>
     <use xlink:href="#m8fc0d2a38e" x="280.316875" y="47.706429" style="fill: #ff0000; stroke: #ff0000; stroke-linejoin: miter"/>
     <use xlink:href="#m8fc0d2a38e" x="293.350208" y="50.547931" style="fill: #ff0000; stroke: #ff0000; stroke-linejoin: miter"/>
     <use xlink:href="#m8fc0d2a38e" x="306.383542" y="47.138129" style="fill: #ff0000; stroke: #ff0000; stroke-linejoin: miter"/>
     <use xlink:href="#m8fc0d2a38e" x="319.416875" y="45.433228" style="fill: #ff0000; stroke: #ff0000; stroke-linejoin: miter"/>
     <use xlink:href="#m8fc0d2a38e" x="332.450208" y="46.001528" style="fill: #ff0000; stroke: #ff0000; stroke-linejoin: miter"/>
     <use xlink:href="#m8fc0d2a38e" x="345.483542" y="48.84303" style="fill: #ff0000; stroke: #ff0000; stroke-linejoin: miter"/>
     <use xlink:href="#m8fc0d2a38e" x="358.516875" y="47.138129" style="fill: #ff0000; stroke: #ff0000; stroke-linejoin: miter"/>
     <use xlink:href="#m8fc0d2a38e" x="371.550208" y="47.706429" style="fill: #ff0000; stroke: #ff0000; stroke-linejoin: miter"/>
     <use xlink:href="#m8fc0d2a38e" x="384.583542" y="46.001528" style="fill: #ff0000; stroke: #ff0000; stroke-linejoin: miter"/>
     <use xlink:href="#m8fc0d2a38e" x="397.616875" y="47.706429" style="fill: #ff0000; stroke: #ff0000; stroke-linejoin: miter"/>
     <use xlink:href="#m8fc0d2a38e" x="410.650208" y="47.138129" style="fill: #ff0000; stroke: #ff0000; stroke-linejoin: miter"/>
     <use xlink:href="#m8fc0d2a38e" x="423.683542" y="45.433228" style="fill: #ff0000; stroke: #ff0000; stroke-linejoin: miter"/>
     <use xlink:href="#m8fc0d2a38e" x="436.716875" y="48.84303" style="fill: #ff0000; stroke: #ff0000; stroke-linejoin: miter"/>
     <use xlink:href="#m8fc0d2a38e" x="449.750208" y="47.706429" style="fill: #ff0000; stroke: #ff0000; stroke-linejoin: miter"/>
     <use xlink:href="#m8fc0d2a38e" x="462.783542" y="52.252832" style="fill: #ff0000; stroke: #ff0000; stroke-linejoin: miter"/>
     <use xlink:href="#m8fc0d2a38e" x="475.816875" y="48.84303" style="fill: #ff0000; stroke: #ff0000; stroke-linejoin: miter"/>
     <use xlink:href="#m8fc0d2a38e" x="488.850208" y="47.706429" style="fill: #ff0000; stroke: #ff0000; stroke-linejoin: miter"/>
     <use xlink:href="#m8fc0d2a38e" x="501.883542" y="47.706429" style="fill: #ff0000; stroke: #ff0000; stroke-linejoin: miter"/>
     <use xlink:href="#m8fc0d2a38e" x="514.916875" y="48.274729" style="fill: #ff0000; stroke: #ff0000; stroke-linejoin: miter"/>
     <use xlink:href="#m8fc0d2a38e" x="527.950208" y="49.41133" style="fill: #ff0000; stroke: #ff0000; stroke-linejoin: miter"/>
     <use xlink:href="#m8fc0d2a38e" x="540.983542" y="43.728326" style="fill: #ff0000; stroke: #ff0000; stroke-linejoin: miter"/>
     <use xlink:href="#m8fc0d2a38e" x="554.016875" y="46.569828" style="fill: #ff0000; stroke: #ff0000; stroke-linejoin: miter"/>
    </g>
   </g>
   <g id="line2d_31">
    <path d="M 45.716875 88.055757 
L 58.750208 69.301844 
L 71.783542 69.301844 
L 84.816875 69.870145 
L 97.850208 65.892042 
L 110.883542 68.165243 
L 123.916875 68.733544 
L 136.950208 75.701113 
L 149.983542 73.279947 
L 163.016875 75.553148 
L 176.050208 67.028643 
L 189.083542 73.279947 
L 202.116875 73.279947 
L 215.150208 72.143346 
L 228.183542 78.39465 
L 241.216875 73.848247 
L 254.250208 68.733544 
L 267.283542 73.279947 
L 280.316875 68.733544 
L 293.350208 65.892042 
L 306.383542 71.575046 
L 319.416875 70.602123 
L 332.450208 66.460342 
L 345.483542 72.143346 
L 358.516875 75.553148 
L 371.550208 71.575046 
L 384.583542 72.711646 
L 397.616875 74.416548 
L 410.650208 73.848247 
L 423.683542 69.301844 
L 436.716875 74.416548 
L 449.750208 77.82635 
L 462.783542 70.438445 
L 475.816875 73.279947 
L 488.850208 81.804453 
L 501.883542 72.143346 
L 514.916875 71.575046 
L 527.950208 72.143346 
L 540.983542 71.006745 
L 554.016875 73.279947 
" clip-path="url(#pd7a6622ed2)" style="fill: none; stroke-dasharray: 12.8,3.2,2,3.2; stroke-dashoffset: 0; stroke: #008000; stroke-width: 2"/>
    <defs>
     <path id="mb4bfb6fd1c" d="M 0 -2 
L -2 2 
L 2 2 
z
" style="stroke: #008000; stroke-linejoin: miter"/>
    </defs>
    <g clip-path="url(#pd7a6622ed2)">
     <use xlink:href="#mb4bfb6fd1c" x="45.716875" y="88.055757" style="fill: #008000; stroke: #008000; stroke-linejoin: miter"/>
     <use xlink:href="#mb4bfb6fd1c" x="58.750208" y="69.301844" style="fill: #008000; stroke: #008000; stroke-linejoin: miter"/>
     <use xlink:href="#mb4bfb6fd1c" x="71.783542" y="69.301844" style="fill: #008000; stroke: #008000; stroke-linejoin: miter"/>
     <use xlink:href="#mb4bfb6fd1c" x="84.816875" y="69.870145" style="fill: #008000; stroke: #008000; stroke-linejoin: miter"/>
     <use xlink:href="#mb4bfb6fd1c" x="97.850208" y="65.892042" style="fill: #008000; stroke: #008000; stroke-linejoin: miter"/>
     <use xlink:href="#mb4bfb6fd1c" x="110.883542" y="68.165243" style="fill: #008000; stroke: #008000; stroke-linejoin: miter"/>
     <use xlink:href="#mb4bfb6fd1c" x="123.916875" y="68.733544" style="fill: #008000; stroke: #008000; stroke-linejoin: miter"/>
     <use xlink:href="#mb4bfb6fd1c" x="136.950208" y="75.701113" style="fill: #008000; stroke: #008000; stroke-linejoin: miter"/>
     <use xlink:href="#mb4bfb6fd1c" x="149.983542" y="73.279947" style="fill: #008000; stroke: #008000; stroke-linejoin: miter"/>
     <use xlink:href="#mb4bfb6fd1c" x="163.016875" y="75.553148" style="fill: #008000; stroke: #008000; stroke-linejoin: miter"/>
     <use xlink:href="#mb4bfb6fd1c" x="176.050208" y="67.028643" style="fill: #008000; stroke: #008000; stroke-linejoin: miter"/>
     <use xlink:href="#mb4bfb6fd1c" x="189.083542" y="73.279947" style="fill: #008000; stroke: #008000; stroke-linejoin: miter"/>
     <use xlink:href="#mb4bfb6fd1c" x="202.116875" y="73.279947" style="fill: #008000; stroke: #008000; stroke-linejoin: miter"/>
     <use xlink:href="#mb4bfb6fd1c" x="215.150208" y="72.143346" style="fill: #008000; stroke: #008000; stroke-linejoin: miter"/>
     <use xlink:href="#mb4bfb6fd1c" x="228.183542" y="78.39465" style="fill: #008000; stroke: #008000; stroke-linejoin: miter"/>
     <use xlink:href="#mb4bfb6fd1c" x="241.216875" y="73.848247" style="fill: #008000; stroke: #008000; stroke-linejoin: miter"/>
     <use xlink:href="#mb4bfb6fd1c" x="254.250208" y="68.733544" style="fill: #008000; stroke: #008000; stroke-linejoin: miter"/>
     <use xlink:href="#mb4bfb6fd1c" x="267.283542" y="73.279947" style="fill: #008000; stroke: #008000; stroke-linejoin: miter"/>
     <use xlink:href="#mb4bfb6fd1c" x="280.316875" y="68.733544" style="fill: #008000; stroke: #008000; stroke-linejoin: miter"/>
     <use xlink:href="#mb4bfb6fd1c" x="293.350208" y="65.892042" style="fill: #008000; stroke: #008000; stroke-linejoin: miter"/>
     <use xlink:href="#mb4bfb6fd1c" x="306.383542" y="71.575046" style="fill: #008000; stroke: #008000; stroke-linejoin: miter"/>
     <use xlink:href="#mb4bfb6fd1c" x="319.416875" y="70.602123" style="fill: #008000; stroke: #008000; stroke-linejoin: miter"/>
     <use xlink:href="#mb4bfb6fd1c" x="332.450208" y="66.460342" style="fill: #008000; stroke: #008000; stroke-linejoin: miter"/>
     <use xlink:href="#mb4bfb6fd1c" x="345.483542" y="72.143346" style="fill: #008000; stroke: #008000; stroke-linejoin: miter"/>
     <use xlink:href="#mb4bfb6fd1c" x="358.516875" y="75.553148" style="fill: #008000; stroke: #008000; stroke-linejoin: miter"/>
     <use xlink:href="#mb4bfb6fd1c" x="371.550208" y="71.575046" style="fill: #008000; stroke: #008000; stroke-linejoin: miter"/>
     <use xlink:href="#mb4bfb6fd1c" x="384.583542" y="72.711646" style="fill: #008000; stroke: #008000; stroke-linejoin: miter"/>
     <use xlink:href="#mb4bfb6fd1c" x="397.616875" y="74.416548" style="fill: #008000; stroke: #008000; stroke-linejoin: miter"/>
     <use xlink:href="#mb4bfb6fd1c" x="410.650208" y="73.848247" style="fill: #008000; stroke: #008000; stroke-linejoin: miter"/>
     <use xlink:href="#mb4bfb6fd1c" x="423.683542" y="69.301844" style="fill: #008000; stroke: #008000; stroke-linejoin: miter"/>
     <use xlink:href="#mb4bfb6fd1c" x="436.716875" y="74.416548" style="fill: #008000; stroke: #008000; stroke-linejoin: miter"/>
     <use xlink:href="#mb4bfb6fd1c" x="449.750208" y="77.82635" style="fill: #008000; stroke: #008000; stroke-linejoin: miter"/>
     <use xlink:href="#mb4bfb6fd1c" x="462.783542" y="70.438445" style="fill: #008000; stroke: #008000; stroke-linejoin: miter"/>
     <use xlink:href="#mb4bfb6fd1c" x="475.816875" y="73.279947" style="fill: #008000; stroke: #008000; stroke-linejoin: miter"/>
     <use xlink:href="#mb4bfb6fd1c" x="488.850208" y="81.804453" style="fill: #008000; stroke: #008000; stroke-linejoin: miter"/>
     <use xlink:href="#mb4bfb6fd1c" x="501.883542" y="72.143346" style="fill: #008000; stroke: #008000; stroke-linejoin: miter"/>
     <use xlink:href="#mb4bfb6fd1c" x="514.916875" y="71.575046" style="fill: #008000; stroke: #008000; stroke-linejoin: miter"/>
     <use xlink:href="#mb4bfb6fd1c" x="527.950208" y="72.143346" style="fill: #008000; stroke: #008000; stroke-linejoin: miter"/>
     <use xlink:href="#mb4bfb6fd1c" x="540.983542" y="71.006745" style="fill: #008000; stroke: #008000; stroke-linejoin: miter"/>
     <use xlink:href="#mb4bfb6fd1c" x="554.016875" y="73.279947" style="fill: #008000; stroke: #008000; stroke-linejoin: miter"/>
    </g>
   </g>
   <g id="line2d_32">
    <path d="M 45.716875 286.392595 
L 554.016875 286.392595 
" clip-path="url(#pd7a6622ed2)" style="fill: none; stroke-dasharray: 1.5,2.475; stroke-dashoffset: 0; stroke: #808080; stroke-opacity: 0.5; stroke-width: 1.5"/>
   </g>
   <g id="line2d_33">
    <path d="M 45.716875 36.340421 
L 554.016875 36.340421 
" clip-path="url(#pd7a6622ed2)" style="fill: none; stroke-dasharray: 1.5,2.475; stroke-dashoffset: 0; stroke: #000000; stroke-opacity: 0.3; stroke-width: 1.5"/>
   </g>
   <g id="patch_3">
    <path d="M 45.716875 311.397812 
L 45.716875 23.837812 
" style="fill: none; stroke: #000000; stroke-width: 0.8; stroke-linejoin: miter; stroke-linecap: square"/>
   </g>
   <g id="patch_4">
    <path d="M 554.016875 311.397812 
L 554.016875 23.837812 
" style="fill: none; stroke: #000000; stroke-width: 0.8; stroke-linejoin: miter; stroke-linecap: square"/>
   </g>
   <g id="patch_5">
    <path d="M 45.716875 311.397812 
L 554.016875 311.397812 
" style="fill: none; stroke: #000000; stroke-width: 0.8; stroke-linejoin: miter; stroke-linecap: square"/>
   </g>
   <g id="patch_6">
    <path d="M 45.716875 23.837812 
L 554.016875 23.837812 
" style="fill: none; stroke: #000000; stroke-width: 0.8; stroke-linejoin: miter; stroke-linecap: square"/>
   </g>
   <g id="text_17">
    <!-- Ranking Correlation (Kendall τ) Over Iterations -->
    <g transform="translate(113.554219 17.837812) scale(0.14 -0.14)">
     <defs>
      <path id="DejaVuSans-Bold-52" d="M 2297 2597 
Q 2675 2597 2839 2737 
Q 3003 2878 3003 3200 
Q 3003 3519 2839 3656 
Q 2675 3794 2297 3794 
L 1791 3794 
L 1791 2597 
L 2297 2597 
z
M 1791 1766 
L 1791 0 
L 588 0 
L 588 4666 
L 2425 4666 
Q 3347 4666 3776 4356 
Q 4206 4047 4206 3378 
Q 4206 2916 3982 2619 
Q 3759 2322 3309 2181 
Q 3556 2125 3751 1926 
Q 3947 1728 4147 1325 
L 4800 0 
L 3519 0 
L 2950 1159 
Q 2778 1509 2601 1637 
Q 2425 1766 2131 1766 
L 1791 1766 
z
" transform="scale(0.015625)"/>
      <path id="DejaVuSans-Bold-61" d="M 2106 1575 
Q 1756 1575 1579 1456 
Q 1403 1338 1403 1106 
Q 1403 894 1545 773 
Q 1688 653 1941 653 
Q 2256 653 2472 879 
Q 2688 1106 2688 1447 
L 2688 1575 
L 2106 1575 
z
M 3816 1997 
L 3816 0 
L 2688 0 
L 2688 519 
Q 2463 200 2181 54 
Q 1900 -91 1497 -91 
Q 953 -91 614 226 
Q 275 544 275 1050 
Q 275 1666 698 1953 
Q 1122 2241 2028 2241 
L 2688 2241 
L 2688 2328 
Q 2688 2594 2478 2717 
Q 2269 2841 1825 2841 
Q 1466 2841 1156 2769 
Q 847 2697 581 2553 
L 581 3406 
Q 941 3494 1303 3539 
Q 1666 3584 2028 3584 
Q 2975 3584 3395 3211 
Q 3816 2838 3816 1997 
z
" transform="scale(0.015625)"/>
      <path id="DejaVuSans-Bold-6e" d="M 4056 2131 
L 4056 0 
L 2931 0 
L 2931 347 
L 2931 1631 
Q 2931 2084 2911 2256 
Q 2891 2428 2841 2509 
Q 2775 2619 2662 2680 
Q 2550 2741 2406 2741 
Q 2056 2741 1856 2470 
Q 1656 2200 1656 1722 
L 1656 0 
L 538 0 
L 538 3500 
L 1656 3500 
L 1656 2988 
Q 1909 3294 2193 3439 
Q 2478 3584 2822 3584 
Q 3428 3584 3742 3212 
Q 4056 2841 4056 2131 
z
" transform="scale(0.015625)"/>
      <path id="DejaVuSans-Bold-6b" d="M 538 4863 
L 1656 4863 
L 1656 2216 
L 2944 3500 
L 4244 3500 
L 2534 1894 
L 4378 0 
L 3022 0 
L 1656 1459 
L 1656 0 
L 538 0 
L 538 4863 
z
" transform="scale(0.015625)"/>
      <path id="DejaVuSans-Bold-69" d="M 538 3500 
L 1656 3500 
L 1656 0 
L 538 0 
L 538 3500 
z
M 538 4863 
L 1656 4863 
L 1656 3950 
L 538 3950 
L 538 4863 
z
" transform="scale(0.015625)"/>
      <path id="DejaVuSans-Bold-67" d="M 2919 594 
Q 2688 288 2409 144 
Q 2131 0 1766 0 
Q 1125 0 706 504 
Q 288 1009 288 1791 
Q 288 2575 706 3076 
Q 1125 3578 1766 3578 
Q 2131 3578 2409 3434 
Q 2688 3291 2919 2981 
L 2919 3500 
L 4044 3500 
L 4044 353 
Q 4044 -491 3511 -936 
Q 2978 -1381 1966 -1381 
Q 1638 -1381 1331 -1331 
Q 1025 -1281 716 -1178 
L 716 -306 
Q 1009 -475 1290 -558 
Q 1572 -641 1856 -641 
Q 2406 -641 2662 -400 
Q 2919 -159 2919 353 
L 2919 594 
z
M 2181 2772 
Q 1834 2772 1640 2515 
Q 1447 2259 1447 1791 
Q 1447 1309 1634 1061 
Q 1822 813 2181 813 
Q 2531 813 2725 1069 
Q 2919 1325 2919 1791 
Q 2919 2259 2725 2515 
Q 2531 2772 2181 2772 
z
" transform="scale(0.015625)"/>
      <path id="DejaVuSans-Bold-20" transform="scale(0.015625)"/>
      <path id="DejaVuSans-Bold-43" d="M 4288 256 
Q 3956 84 3597 -3 
Q 3238 -91 2847 -91 
Q 1681 -91 1000 561 
Q 319 1213 319 2328 
Q 319 3447 1000 4098 
Q 1681 4750 2847 4750 
Q 3238 4750 3597 4662 
Q 3956 4575 4288 4403 
L 4288 3438 
Q 3953 3666 3628 3772 
Q 3303 3878 2944 3878 
Q 2300 3878 1931 3465 
Q 1563 3053 1563 2328 
Q 1563 1606 1931 1193 
Q 2300 781 2944 781 
Q 3303 781 3628 887 
Q 3953 994 4288 1222 
L 4288 256 
z
" transform="scale(0.015625)"/>
      <path id="DejaVuSans-Bold-6f" d="M 2203 2784 
Q 1831 2784 1636 2517 
Q 1441 2250 1441 1747 
Q 1441 1244 1636 976 
Q 1831 709 2203 709 
Q 2569 709 2762 976 
Q 2956 1244 2956 1747 
Q 2956 2250 2762 2517 
Q 2569 2784 2203 2784 
z
M 2203 3584 
Q 3106 3584 3614 3096 
Q 4122 2609 4122 1747 
Q 4122 884 3614 396 
Q 3106 -91 2203 -91 
Q 1297 -91 786 396 
Q 275 884 275 1747 
Q 275 2609 786 3096 
Q 1297 3584 2203 3584 
z
" transform="scale(0.015625)"/>
      <path id="DejaVuSans-Bold-72" d="M 3138 2547 
Q 2991 2616 2845 2648 
Q 2700 2681 2553 2681 
Q 2122 2681 1889 2404 
Q 1656 2128 1656 1613 
L 1656 0 
L 538 0 
L 538 3500 
L 1656 3500 
L 1656 2925 
Q 1872 3269 2151 3426 
Q 2431 3584 2822 3584 
Q 2878 3584 2943 3579 
Q 3009 3575 3134 3559 
L 3138 2547 
z
" transform="scale(0.015625)"/>
      <path id="DejaVuSans-Bold-65" d="M 4031 1759 
L 4031 1441 
L 1416 1441 
Q 1456 1047 1700 850 
Q 1944 653 2381 653 
Q 2734 653 3104 758 
Q 3475 863 3866 1075 
L 3866 213 
Q 3469 63 3072 -14 
Q 2675 -91 2278 -91 
Q 1328 -91 801 392 
Q 275 875 275 1747 
Q 275 2603 792 3093 
Q 1309 3584 2216 3584 
Q 3041 3584 3536 3087 
Q 4031 2591 4031 1759 
z
M 2881 2131 
Q 2881 2450 2695 2645 
Q 2509 2841 2209 2841 
Q 1884 2841 1681 2658 
Q 1478 2475 1428 2131 
L 2881 2131 
z
" transform="scale(0.015625)"/>
      <path id="DejaVuSans-Bold-6c" d="M 538 4863 
L 1656 4863 
L 1656 0 
L 538 0 
L 538 4863 
z
" transform="scale(0.015625)"/>
      <path id="DejaVuSans-Bold-74" d="M 1759 4494 
L 1759 3500 
L 2913 3500 
L 2913 2700 
L 1759 2700 
L 1759 1216 
Q 1759 972 1856 886 
Q 1953 800 2241 800 
L 2816 800 
L 2816 0 
L 1856 0 
Q 1194 0 917 276 
Q 641 553 641 1216 
L 641 2700 
L 84 2700 
L 84 3500 
L 641 3500 
L 641 4494 
L 1759 4494 
z
" transform="scale(0.015625)"/>
      <path id="DejaVuSans-Bold-28" d="M 2413 -844 
L 1484 -844 
Q 1006 -72 778 623 
Q 550 1319 550 2003 
Q 550 2688 779 3389 
Q 1009 4091 1484 4856 
L 2413 4856 
Q 2013 4116 1813 3408 
Q 1613 2700 1613 2009 
Q 1613 1319 1811 609 
Q 2009 -100 2413 -844 
z
" transform="scale(0.015625)"/>
      <path id="DejaVuSans-Bold-4b" d="M 588 4666 
L 1791 4666 
L 1791 2963 
L 3525 4666 
L 4922 4666 
L 2675 2456 
L 5153 0 
L 3647 0 
L 1791 1838 
L 1791 0 
L 588 0 
L 588 4666 
z
" transform="scale(0.015625)"/>
      <path id="DejaVuSans-Bold-64" d="M 2919 2988 
L 2919 4863 
L 4044 4863 
L 4044 0 
L 2919 0 
L 2919 506 
Q 2688 197 2409 53 
Q 2131 -91 1766 -91 
Q 1119 -91 703 423 
Q 288 938 288 1747 
Q 288 2556 703 3070 
Q 1119 3584 1766 3584 
Q 2128 3584 2408 3439 
Q 2688 3294 2919 2988 
z
M 2181 722 
Q 2541 722 2730 984 
Q 2919 1247 2919 1747 
Q 2919 2247 2730 2509 
Q 2541 2772 2181 2772 
Q 1825 2772 1636 2509 
Q 1447 2247 1447 1747 
Q 1447 1247 1636 984 
Q 1825 722 2181 722 
z
" transform="scale(0.015625)"/>
      <path id="DejaVuSans-Bold-3c4" d="M 134 2700 
L 134 3500 
L 3916 3500 
L 3916 2700 
L 2584 2700 
L 2584 1131 
Q 2584 731 2661 631 
Q 2738 531 2913 531 
Q 3091 531 3191 544 
L 3191 -44 
Q 2997 -122 2334 -122 
Q 2125 -122 1922 -63 
Q 1597 34 1506 319 
Q 1466 459 1466 728 
L 1466 2700 
L 134 2700 
z
" transform="scale(0.015625)"/>
      <path id="DejaVuSans-Bold-29" d="M 513 -844 
Q 913 -100 1113 609 
Q 1313 1319 1313 2009 
Q 1313 2700 1113 3408 
Q 913 4116 513 4856 
L 1441 4856 
Q 1916 4091 2145 3389 
Q 2375 2688 2375 2003 
Q 2375 1319 2147 623 
Q 1919 -72 1441 -844 
L 513 -844 
z
" transform="scale(0.015625)"/>
      <path id="DejaVuSans-Bold-4f" d="M 2719 3878 
Q 2169 3878 1866 3472 
Q 1563 3066 1563 2328 
Q 1563 1594 1866 1187 
Q 2169 781 2719 781 
Q 3272 781 3575 1187 
Q 3878 1594 3878 2328 
Q 3878 3066 3575 3472 
Q 3272 3878 2719 3878 
z
M 2719 4750 
Q 3844 4750 4481 4106 
Q 5119 3463 5119 2328 
Q 5119 1197 4481 553 
Q 3844 -91 2719 -91 
Q 1597 -91 958 553 
Q 319 1197 319 2328 
Q 319 3463 958 4106 
Q 1597 4750 2719 4750 
z
" transform="scale(0.015625)"/>
      <path id="DejaVuSans-Bold-76" d="M 97 3500 
L 1216 3500 
L 2088 1081 
L 2956 3500 
L 4078 3500 
L 2700 0 
L 1472 0 
L 97 3500 
z
" transform="scale(0.015625)"/>
      <path id="DejaVuSans-Bold-49" d="M 588 4666 
L 1791 4666 
L 1791 0 
L 588 0 
L 588 4666 
z
" transform="scale(0.015625)"/>
      <path id="DejaVuSans-Bold-73" d="M 3272 3391 
L 3272 2541 
Q 2913 2691 2578 2766 
Q 2244 2841 1947 2841 
Q 1628 2841 1473 2761 
Q 1319 2681 1319 2516 
Q 1319 2381 1436 2309 
Q 1553 2238 1856 2203 
L 2053 2175 
Q 2913 2066 3209 1816 
Q 3506 1566 3506 1031 
Q 3506 472 3093 190 
Q 2681 -91 1863 -91 
Q 1516 -91 1145 -36 
Q 775 19 384 128 
L 384 978 
Q 719 816 1070 734 
Q 1422 653 1784 653 
Q 2113 653 2278 743 
Q 2444 834 2444 1013 
Q 2444 1163 2330 1236 
Q 2216 1309 1875 1350 
L 1678 1375 
Q 931 1469 631 1722 
Q 331 1975 331 2491 
Q 331 3047 712 3315 
Q 1094 3584 1881 3584 
Q 2191 3584 2531 3537 
Q 2872 3491 3272 3391 
z
" transform="scale(0.015625)"/>
     </defs>
     <use xlink:href="#DejaVuSans-Bold-52"/>
     <use xlink:href="#DejaVuSans-Bold-61" transform="translate(77.001953 0)"/>
     <use xlink:href="#DejaVuSans-Bold-6e" transform="translate(144.482422 0)"/>
     <use xlink:href="#DejaVuSans-Bold-6b" transform="translate(215.673828 0)"/>
     <use xlink:href="#DejaVuSans-Bold-69" transform="translate(282.177734 0)"/>
     <use xlink:href="#DejaVuSans-Bold-6e" transform="translate(316.455078 0)"/>
     <use xlink:href="#DejaVuSans-Bold-67" transform="translate(387.646484 0)"/>
     <use xlink:href="#DejaVuSans-Bold-20" transform="translate(459.228516 0)"/>
     <use xlink:href="#DejaVuSans-Bold-43" transform="translate(494.042969 0)"/>
     <use xlink:href="#DejaVuSans-Bold-6f" transform="translate(567.431641 0)"/>
     <use xlink:href="#DejaVuSans-Bold-72" transform="translate(636.132812 0)"/>
     <use xlink:href="#DejaVuSans-Bold-72" transform="translate(685.449219 0)"/>
     <use xlink:href="#DejaVuSans-Bold-65" transform="translate(734.765625 0)"/>
     <use xlink:href="#DejaVuSans-Bold-6c" transform="translate(802.587891 0)"/>
     <use xlink:href="#DejaVuSans-Bold-61" transform="translate(836.865234 0)"/>
     <use xlink:href="#DejaVuSans-Bold-74" transform="translate(904.345703 0)"/>
     <use xlink:href="#DejaVuSans-Bold-69" transform="translate(952.148438 0)"/>
     <use xlink:href="#DejaVuSans-Bold-6f" transform="translate(986.425781 0)"/>
     <use xlink:href="#DejaVuSans-Bold-6e" transform="translate(1055.126953 0)"/>
     <use xlink:href="#DejaVuSans-Bold-20" transform="translate(1126.318359 0)"/>
     <use xlink:href="#DejaVuSans-Bold-28" transform="translate(1161.132812 0)"/>
     <use xlink:href="#DejaVuSans-Bold-4b" transform="translate(1206.835938 0)"/>
     <use xlink:href="#DejaVuSans-Bold-65" transform="translate(1282.576172 0)"/>
     <use xlink:href="#DejaVuSans-Bold-6e" transform="translate(1350.398438 0)"/>
     <use xlink:href="#DejaVuSans-Bold-64" transform="translate(1421.589844 0)"/>
     <use xlink:href="#DejaVuSans-Bold-61" transform="translate(1493.171875 0)"/>
     <use xlink:href="#DejaVuSans-Bold-6c" transform="translate(1560.652344 0)"/>
     <use xlink:href="#DejaVuSans-Bold-6c" transform="translate(1594.929688 0)"/>
     <use xlink:href="#DejaVuSans-Bold-20" transform="translate(1629.207031 0)"/>
     <use xlink:href="#DejaVuSans-Bold-3c4" transform="translate(1664.021484 0)"/>
     <use xlink:href="#DejaVuSans-Bold-29" transform="translate(1727.839844 0)"/>
     <use xlink:href="#DejaVuSans-Bold-20" transform="translate(1773.542969 0)"/>
     <use xlink:href="#DejaVuSans-Bold-4f" transform="translate(1808.357422 0)"/>
     <use xlink:href="#DejaVuSans-Bold-76" transform="translate(1893.367188 0)"/>
     <use xlink:href="#DejaVuSans-Bold-65" transform="translate(1958.552734 0)"/>
     <use xlink:href="#DejaVuSans-Bold-72" transform="translate(2026.375 0)"/>
     <use xlink:href="#DejaVuSans-Bold-20" transform="translate(2075.691406 0)"/>
     <use xlink:href="#DejaVuSans-Bold-49" transform="translate(2110.505859 0)"/>
     <use xlink:href="#DejaVuSans-Bold-74" transform="translate(2147.712891 0)"/>
     <use xlink:href="#DejaVuSans-Bold-65" transform="translate(2195.515625 0)"/>
     <use xlink:href="#DejaVuSans-Bold-72" transform="translate(2263.337891 0)"/>
     <use xlink:href="#DejaVuSans-Bold-61" transform="translate(2312.654297 0)"/>
     <use xlink:href="#DejaVuSans-Bold-74" transform="translate(2380.134766 0)"/>
     <use xlink:href="#DejaVuSans-Bold-69" transform="translate(2427.9375 0)"/>
     <use xlink:href="#DejaVuSans-Bold-6f" transform="translate(2462.214844 0)"/>
     <use xlink:href="#DejaVuSans-Bold-6e" transform="translate(2530.916016 0)"/>
     <use xlink:href="#DejaVuSans-Bold-73" transform="translate(2602.107422 0)"/>
    </g>
   </g>
   <g id="legend_1">
    <g id="patch_7">
     <path d="M 421.287188 306.397812 
L 547.016875 306.397812 
Q 549.016875 306.397812 549.016875 304.397812 
L 549.016875 246.685312 
Q 549.016875 244.685312 547.016875 244.685312 
L 421.287188 244.685312 
Q 419.287188 244.685312 419.287188 246.685312 
L 419.287188 304.397812 
Q 419.287188 306.397812 421.287188 306.397812 
z
" style="fill: #ffffff; opacity: 0.8; stroke: #cccccc; stroke-linejoin: miter"/>
    </g>
    <g id="line2d_34">
     <path d="M 423.287188 252.78375 
L 433.287188 252.78375 
L 443.287188 252.78375 
" style="fill: none; stroke: #0000ff; stroke-width: 2; stroke-linecap: square"/>
     <g>
      <use xlink:href="#m52320fd889" x="433.287188" y="252.78375" style="fill: #0000ff; stroke: #0000ff"/>
     </g>
    </g>
    <g id="text_18">
     <!-- Compression Ratio -->
     <g transform="translate(451.287188 256.28375) scale(0.1 -0.1)">
      <defs>
       <path id="DejaVuSans-43" d="M 4122 4306 
L 4122 3641 
Q 3803 3938 3442 4084 
Q 3081 4231 2675 4231 
Q 1875 4231 1450 3742 
Q 1025 3253 1025 2328 
Q 1025 1406 1450 917 
Q 1875 428 2675 428 
Q 3081 428 3442 575 
Q 3803 722 4122 1019 
L 4122 359 
Q 3791 134 3420 21 
Q 3050 -91 2638 -91 
Q 1578 -91 968 557 
Q 359 1206 359 2328 
Q 359 3453 968 4101 
Q 1578 4750 2638 4750 
Q 3056 4750 3426 4639 
Q 3797 4528 4122 4306 
z
" transform="scale(0.015625)"/>
       <path id="DejaVuSans-6d" d="M 3328 2828 
Q 3544 3216 3844 3400 
Q 4144 3584 4550 3584 
Q 5097 3584 5394 3201 
Q 5691 2819 5691 2113 
L 5691 0 
L 5113 0 
L 5113 2094 
Q 5113 2597 4934 2840 
Q 4756 3084 4391 3084 
Q 3944 3084 3684 2787 
Q 3425 2491 3425 1978 
L 3425 0 
L 2847 0 
L 2847 2094 
Q 2847 2600 2669 2842 
Q 2491 3084 2119 3084 
Q 1678 3084 1418 2786 
Q 1159 2488 1159 1978 
L 1159 0 
L 581 0 
L 581 3500 
L 1159 3500 
L 1159 2956 
Q 1356 3278 1631 3431 
Q 1906 3584 2284 3584 
Q 2666 3584 2933 3390 
Q 3200 3197 3328 2828 
z
" transform="scale(0.015625)"/>
       <path id="DejaVuSans-70" d="M 1159 525 
L 1159 -1331 
L 581 -1331 
L 581 3500 
L 1159 3500 
L 1159 2969 
Q 1341 3281 1617 3432 
Q 1894 3584 2278 3584 
Q 2916 3584 3314 3078 
Q 3713 2572 3713 1747 
Q 3713 922 3314 415 
Q 2916 -91 2278 -91 
Q 1894 -91 1617 61 
Q 1341 213 1159 525 
z
M 3116 1747 
Q 3116 2381 2855 2742 
Q 2594 3103 2138 3103 
Q 1681 3103 1420 2742 
Q 1159 2381 1159 1747 
Q 1159 1113 1420 752 
Q 1681 391 2138 391 
Q 2594 391 2855 752 
Q 3116 1113 3116 1747 
z
" transform="scale(0.015625)"/>
       <path id="DejaVuSans-52" d="M 2841 2188 
Q 3044 2119 3236 1894 
Q 3428 1669 3622 1275 
L 4263 0 
L 3584 0 
L 2988 1197 
Q 2756 1666 2539 1819 
Q 2322 1972 1947 1972 
L 1259 1972 
L 1259 0 
L 628 0 
L 628 4666 
L 2053 4666 
Q 2853 4666 3247 4331 
Q 3641 3997 3641 3322 
Q 3641 2881 3436 2590 
Q 3231 2300 2841 2188 
z
M 1259 4147 
L 1259 2491 
L 2053 2491 
Q 2509 2491 2742 2702 
Q 2975 2913 2975 3322 
Q 2975 3731 2742 3939 
Q 2509 4147 2053 4147 
L 1259 4147 
z
" transform="scale(0.015625)"/>
      </defs>
      <use xlink:href="#DejaVuSans-43"/>
      <use xlink:href="#DejaVuSans-6f" transform="translate(69.824219 0)"/>
      <use xlink:href="#DejaVuSans-6d" transform="translate(131.005859 0)"/>
      <use xlink:href="#DejaVuSans-70" transform="translate(228.417969 0)"/>
      <use xlink:href="#DejaVuSans-72" transform="translate(291.894531 0)"/>
      <use xlink:href="#DejaVuSans-65" transform="translate(330.757812 0)"/>
      <use xlink:href="#DejaVuSans-73" transform="translate(392.28125 0)"/>
      <use xlink:href="#DejaVuSans-73" transform="translate(444.380859 0)"/>
      <use xlink:href="#DejaVuSans-69" transform="translate(496.480469 0)"/>
      <use xlink:href="#DejaVuSans-6f" transform="translate(524.263672 0)"/>
      <use xlink:href="#DejaVuSans-6e" transform="translate(585.445312 0)"/>
      <use xlink:href="#DejaVuSans-20" transform="translate(648.824219 0)"/>
      <use xlink:href="#DejaVuSans-52" transform="translate(680.611328 0)"/>
      <use xlink:href="#DejaVuSans-61" transform="translate(747.84375 0)"/>
      <use xlink:href="#DejaVuSans-74" transform="translate(809.123047 0)"/>
      <use xlink:href="#DejaVuSans-69" transform="translate(848.332031 0)"/>
      <use xlink:href="#DejaVuSans-6f" transform="translate(876.115234 0)"/>
     </g>
    </g>
    <g id="line2d_35">
     <path d="M 423.287188 267.461875 
L 433.287188 267.461875 
L 443.287188 267.461875 
" style="fill: none; stroke-dasharray: 7.4,3.2; stroke-dashoffset: 0; stroke: #ff0000; stroke-width: 2"/>
     <g>
      <use xlink:href="#m8fc0d2a38e" x="433.287188" y="267.461875" style="fill: #ff0000; stroke: #ff0000; stroke-linejoin: miter"/>
     </g>
    </g>
    <g id="text_19">
     <!-- Compress Time -->
     <g transform="translate(451.287188 270.961875) scale(0.1 -0.1)">
      <defs>
       <path id="DejaVuSans-54" d="M -19 4666 
L 3928 4666 
L 3928 4134 
L 2272 4134 
L 2272 0 
L 1638 0 
L 1638 4134 
L -19 4134 
L -19 4666 
z
" transform="scale(0.015625)"/>
      </defs>
      <use xlink:href="#DejaVuSans-43"/>
      <use xlink:href="#DejaVuSans-6f" transform="translate(69.824219 0)"/>
      <use xlink:href="#DejaVuSans-6d" transform="translate(131.005859 0)"/>
      <use xlink:href="#DejaVuSans-70" transform="translate(228.417969 0)"/>
      <use xlink:href="#DejaVuSans-72" transform="translate(291.894531 0)"/>
      <use xlink:href="#DejaVuSans-65" transform="translate(330.757812 0)"/>
      <use xlink:href="#DejaVuSans-73" transform="translate(392.28125 0)"/>
      <use xlink:href="#DejaVuSans-73" transform="translate(444.380859 0)"/>
      <use xlink:href="#DejaVuSans-20" transform="translate(496.480469 0)"/>
      <use xlink:href="#DejaVuSans-54" transform="translate(528.267578 0)"/>
      <use xlink:href="#DejaVuSans-69" transform="translate(586.226562 0)"/>
      <use xlink:href="#DejaVuSans-6d" transform="translate(614.009766 0)"/>
      <use xlink:href="#DejaVuSans-65" transform="translate(711.421875 0)"/>
     </g>
    </g>
    <g id="line2d_36">
     <path d="M 423.287188 282.14 
L 433.287188 282.14 
L 443.287188 282.14 
" style="fill: none; stroke-dasharray: 12.8,3.2,2,3.2; stroke-dashoffset: 0; stroke: #008000; stroke-width: 2"/>
     <g>
      <use xlink:href="#mb4bfb6fd1c" x="433.287188" y="282.14" style="fill: #008000; stroke: #008000; stroke-linejoin: miter"/>
     </g>
    </g>
    <g id="text_20">
     <!-- Decompress Time -->
     <g transform="translate(451.287188 285.64) scale(0.1 -0.1)">
      <defs>
       <path id="DejaVuSans-44" d="M 1259 4147 
L 1259 519 
L 2022 519 
Q 2988 519 3436 956 
Q 3884 1394 3884 2338 
Q 3884 3275 3436 3711 
Q 2988 4147 2022 4147 
L 1259 4147 
z
M 628 4666 
L 1925 4666 
Q 3281 4666 3915 4102 
Q 4550 3538 4550 2338 
Q 4550 1131 3912 565 
Q 3275 0 1925 0 
L 628 0 
L 628 4666 
z
" transform="scale(0.015625)"/>
       <path id="DejaVuSans-63" d="M 3122 3366 
L 3122 2828 
Q 2878 2963 2633 3030 
Q 2388 3097 2138 3097 
Q 1578 3097 1268 2742 
Q 959 2388 959 1747 
Q 959 1106 1268 751 
Q 1578 397 2138 397 
Q 2388 397 2633 464 
Q 2878 531 3122 666 
L 3122 134 
Q 2881 22 2623 -34 
Q 2366 -91 2075 -91 
Q 1284 -91 818 406 
Q 353 903 353 1747 
Q 353 2603 823 3093 
Q 1294 3584 2113 3584 
Q 2378 3584 2631 3529 
Q 2884 3475 3122 3366 
z
" transform="scale(0.015625)"/>
      </defs>
      <use xlink:href="#DejaVuSans-44"/>
      <use xlink:href="#DejaVuSans-65" transform="translate(77.001953 0)"/>
      <use xlink:href="#DejaVuSans-63" transform="translate(138.525391 0)"/>
      <use xlink:href="#DejaVuSans-6f" transform="translate(193.505859 0)"/>
      <use xlink:href="#DejaVuSans-6d" transform="translate(254.6875 0)"/>
      <use xlink:href="#DejaVuSans-70" transform="translate(352.099609 0)"/>
      <use xlink:href="#DejaVuSans-72" transform="translate(415.576172 0)"/>
      <use xlink:href="#DejaVuSans-65" transform="translate(454.439453 0)"/>
      <use xlink:href="#DejaVuSans-73" transform="translate(515.962891 0)"/>
      <use xlink:href="#DejaVuSans-73" transform="translate(568.0625 0)"/>
      <use xlink:href="#DejaVuSans-20" transform="translate(620.162109 0)"/>
      <use xlink:href="#DejaVuSans-54" transform="translate(651.949219 0)"/>
      <use xlink:href="#DejaVuSans-69" transform="translate(709.908203 0)"/>
      <use xlink:href="#DejaVuSans-6d" transform="translate(737.691406 0)"/>
      <use xlink:href="#DejaVuSans-65" transform="translate(835.103516 0)"/>
     </g>
    </g>
    <g id="line2d_37">
     <path d="M 423.287188 296.818125 
L 433.287188 296.818125 
L 443.287188 296.818125 
" style="fill: none; stroke-dasharray: 1.5,2.475; stroke-dashoffset: 0; stroke: #808080; stroke-opacity: 0.5; stroke-width: 1.5"/>
    </g>
    <g id="text_21">
     <!-- No correlation -->
     <g transform="translate(451.287188 300.318125) scale(0.1 -0.1)">
      <defs>
       <path id="DejaVuSans-4e" d="M 628 4666 
L 1478 4666 
L 3547 763 
L 3547 4666 
L 4159 4666 
L 4159 0 
L 3309 0 
L 1241 3903 
L 1241 0 
L 628 0 
L 628 4666 
z
" transform="scale(0.015625)"/>
      </defs>
      <use xlink:href="#DejaVuSans-4e"/>
      <use xlink:href="#DejaVuSans-6f" transform="translate(74.804688 0)"/>
      <use xlink:href="#DejaVuSans-20" transform="translate(135.986328 0)"/>
      <use xlink:href="#DejaVuSans-63" transform="translate(167.773438 0)"/>
      <use xlink:href="#DejaVuSans-6f" transform="translate(222.753906 0)"/>
      <use xlink:href="#DejaVuSans-72" transform="translate(283.935547 0)"/>
      <use xlink:href="#DejaVuSans-72" transform="translate(323.298828 0)"/>
      <use xlink:href="#DejaVuSans-65" transform="translate(362.162109 0)"/>
      <use xlink:href="#DejaVuSans-6c" transform="translate(423.685547 0)"/>
      <use xlink:href="#DejaVuSans-61" transform="translate(451.46875 0)"/>
      <use xlink:href="#DejaVuSans-74" transform="translate(512.748047 0)"/>
      <use xlink:href="#DejaVuSans-69" transform="translate(551.957031 0)"/>
      <use xlink:href="#DejaVuSans-6f" transform="translate(579.740234 0)"/>
      <use xlink:href="#DejaVuSans-6e" transform="translate(640.921875 0)"/>
     </g>
    </g>
   </g>
  </g>
 </g>
 <defs>
  <clipPath id="pd7a6622ed2">
   <rect x="45.716875" y="23.837812" width="508.3" height="287.56"/>
  </clipPath>
 </defs>
</svg>
